<svg viewBox="0 0 24 24" xmlns="http://www.w3.org/2000/svg">
<path fill="currentColor" d="m3.079 4.158 8.553 7.105.026.026c.21.185.5.185.684 0l.026-.026 8.553-7.105c.026-.026.053-.026.079-.053-.658-.394-1.421-.658-2.237-.658H5.211c-.816 0-1.58.237-2.237.658a.2.2 0 0 1 .105.053z"></path>
<path fill="currentColor" d="M22.447 5.579a.615.615 0 0 1-.184.184l-8.526 7.105c-.5.421-1.105.658-1.737.658a2.56 2.56 0 0 1-1.737-.658L1.737 5.763c-.08-.052-.132-.131-.184-.184A4.223 4.223 0 0 0 1 7.658v8.684a4.223 4.223 0 0 0 4.21 4.21h13.58a4.223 4.223 0 0 0 4.21-4.21V7.658c0-.763-.21-1.474-.553-2.08z"></path>
</svg>
